<?xml version="1.0" encoding="iso-8859-1"?>
<!-- Generator: Adobe Illustrator 19.0.0, SVG Export Plug-In . SVG Version: 6.00 Build 0)  -->
<svg version="1.1" id="Capa_1" xmlns="http://www.w3.org/2000/svg" xmlns:xlink="http://www.w3.org/1999/xlink" x="0px" y="0px"
	 viewBox="0 0 512 512" style="enable-background:new 0 0 512 512;" xml:space="preserve">
<g>
	<g>
		<path d="M508.888,323.115L231.554,45.781c-3.051-3.029-7.637-3.947-11.627-2.304c-3.989,1.643-6.592,5.547-6.592,9.856v384
			c0,4.032,2.283,7.723,5.888,9.536c3.605,1.792,7.936,1.408,11.157-1.003l75.115-56.341l58.283,116.565
			c1.899,3.755,5.653,5.909,9.557,5.909c1.6,0,3.221-0.363,4.779-1.131l85.333-42.667c5.269-2.645,7.403-9.045,4.779-14.315
			l-56.299-112.555h89.408c4.309,0,8.213-2.603,9.856-6.592C512.834,330.752,511.917,326.187,508.888,323.115z"/>
	</g>
</g>
<g>
	<g>
		<g>
			<path d="M117.336,341.333H74.669c-5.888,0-10.667,4.779-10.667,10.667c0,5.888,4.779,10.667,10.667,10.667h42.667
				c5.888,0,10.667-4.779,10.667-10.667C128.002,346.112,123.224,341.333,117.336,341.333z"/>
			<path d="M202.669,341.333h-42.667c-5.888,0-10.667,4.779-10.667,10.667c0,5.888,4.779,10.667,10.667,10.667h42.667
				c5.888,0,10.667-4.779,10.667-10.667C213.336,346.112,208.557,341.333,202.669,341.333z"/>
		</g>
	</g>
</g>
<g>
	<g>
		<path d="M32.002,341.333H21.336v-10.667c0-5.888-4.779-10.667-10.667-10.667s-10.667,4.779-10.667,10.667V352
			c0,5.888,4.779,10.667,10.667,10.667h21.333c5.888,0,10.667-4.779,10.667-10.667C42.669,346.112,37.89,341.333,32.002,341.333z"/>
	</g>
</g>
<g>
	<g>
		<g>
			<path d="M10.669,234.667c-5.888,0-10.667,4.779-10.667,10.667V288c0,5.888,4.779,10.667,10.667,10.667S21.336,293.888,21.336,288
				v-42.667C21.336,239.445,16.557,234.667,10.669,234.667z"/>
			<path d="M10.669,64C4.781,64,0.002,68.779,0.002,74.667v42.667c0,5.888,4.779,10.667,10.667,10.667s10.667-4.779,10.667-10.667
				V74.667C21.336,68.779,16.557,64,10.669,64z"/>
			<path d="M10.669,149.333c-5.888,0-10.667,4.779-10.667,10.667v42.667c0,5.888,4.779,10.667,10.667,10.667
				s10.667-4.779,10.667-10.667V160C21.336,154.112,16.557,149.333,10.669,149.333z"/>
		</g>
	</g>
</g>
<g>
	<g>
		<path d="M32.002,0H10.669C4.781,0,0.002,4.779,0.002,10.667V32c0,5.888,4.779,10.667,10.667,10.667S21.336,37.888,21.336,32
			V21.333h10.667c5.888,0,10.667-4.779,10.667-10.667S37.89,0,32.002,0z"/>
	</g>
</g>
<g>
	<g>
		<g>
			<path d="M117.336,0H74.669c-5.888,0-10.667,4.779-10.667,10.667s4.779,10.667,10.667,10.667h42.667
				c5.888,0,10.667-4.779,10.667-10.667S123.224,0,117.336,0z"/>
			<path d="M202.669,0h-42.667c-5.888,0-10.667,4.779-10.667,10.667s4.779,10.667,10.667,10.667h42.667
				c5.888,0,10.667-4.779,10.667-10.667S208.557,0,202.669,0z"/>
			<path d="M288.002,0h-42.667c-5.888,0-10.667,4.779-10.667,10.667s4.779,10.667,10.667,10.667h42.667
				c5.888,0,10.667-4.779,10.667-10.667S293.89,0,288.002,0z"/>
		</g>
	</g>
</g>
<g>
	<g>
		<path d="M352.002,0h-21.333c-5.888,0-10.667,4.779-10.667,10.667s4.779,10.667,10.667,10.667h10.667V32
			c0,5.888,4.779,10.667,10.667,10.667c5.888,0,10.667-4.779,10.667-10.667V10.667C362.669,4.779,357.89,0,352.002,0z"/>
	</g>
</g>
<g>
	<g>
		<path d="M352.002,64c-5.888,0-10.667,4.779-10.667,10.667v42.667c0,5.888,4.779,10.667,10.667,10.667
			c5.888,0,10.667-4.779,10.667-10.667V74.667C362.669,68.779,357.89,64,352.002,64z"/>
	</g>
</g>
<g>
	<g>
		<path d="M352.002,149.333c-5.888,0-10.667,4.779-10.667,10.667v21.333c0,5.888,4.779,10.667,10.667,10.667
			c5.888,0,10.667-4.779,10.667-10.667V160C362.669,154.112,357.89,149.333,352.002,149.333z"/>
	</g>
</g>
<g>
</g>
<g>
</g>
<g>
</g>
<g>
</g>
<g>
</g>
<g>
</g>
<g>
</g>
<g>
</g>
<g>
</g>
<g>
</g>
<g>
</g>
<g>
</g>
<g>
</g>
<g>
</g>
<g>
</g>
</svg>
