<svg id="Capa_1" enable-background="new 0 0 515.558 515.558" height="512" viewBox="0 0 515.558 515.558" width="512" xmlns="http://www.w3.org/2000/svg"><path d="m515.558 469.992-137.214-137.212c25.37-34.645 40.545-77.2 40.545-123.333 0-115.484-93.961-209.445-209.445-209.445s-209.444 93.961-209.444 209.445 93.961 209.445 209.445 209.445c46.133 0 88.692-15.177 123.337-40.547l137.212 137.212c0-.001 45.564-45.565 45.564-45.565zm-451.115-260.546c0-79.958 65.042-145 145-145s145 65.042 145 145-65.042 145-145 145-145-65.042-145-145z"/><path d="m241.666 128.89h-64.444v48.333h-48.333v64.444h48.333v48.333h64.444v-48.333h48.333v-64.444h-48.333z"/></svg>